<mxfile host="65bd71144e" modified="2020-12-31T10:51:33.243Z" agent="5.0 (X11; Linux x86_64) AppleWebKit/537.36 (KHTML, like Gecko) Code/1.52.0 Chrome/83.0.4103.122 Electron/9.3.5 Safari/537.36" version="13.10.0" etag="0lgdf4n8kOE6SfIqAI98" type="embed">
    <diagram id="5GlP6X3LHSw_BWhFtZBO" name="Page-1">
        <mxGraphModel dx="1374" dy="739" grid="1" gridSize="10" guides="1" tooltips="1" connect="1" arrows="1" fold="1" page="1" pageScale="1" pageWidth="850" pageHeight="1100" math="0" shadow="0">
            <root>
                <mxCell id="0"/>
                <mxCell id="1" parent="0"/>
                <mxCell id="2" value="&lt;font color=&quot;#000000&quot;&gt;Hadoop&lt;br&gt;Hive&lt;br&gt;Kafka&lt;br&gt;RDBMS&lt;/font&gt;" style="shape=cylinder3;whiteSpace=wrap;html=1;boundedLbl=1;backgroundOutline=1;size=15;fillColor=#FFFFFF;strokeColor=#FFB366;" vertex="1" parent="1">
                    <mxGeometry x="40" y="345" width="60" height="90" as="geometry"/>
                </mxCell>
                <mxCell id="3" value="" style="rounded=0;whiteSpace=wrap;html=1;strokeColor=#FFB366;fillColor=#BFBFBF;" vertex="1" parent="1">
                    <mxGeometry x="200" y="230" width="340" height="330" as="geometry"/>
                </mxCell>
                <mxCell id="4" value="&lt;font color=&quot;#000000&quot;&gt;REST Server&lt;/font&gt;" style="rounded=0;whiteSpace=wrap;html=1;fillColor=#DBDBDB;" vertex="1" parent="1">
                    <mxGeometry x="260" y="260" width="220" height="40" as="geometry"/>
                </mxCell>
                <mxCell id="5" value="&lt;font color=&quot;#000000&quot;&gt;Query Engine&lt;/font&gt;" style="rounded=0;whiteSpace=wrap;html=1;fillColor=#DBDBDB;" vertex="1" parent="1">
                    <mxGeometry x="260" y="315" width="220" height="40" as="geometry"/>
                </mxCell>
                <mxCell id="6" value="&lt;font color=&quot;#000000&quot;&gt;Routing&lt;/font&gt;" style="rounded=0;whiteSpace=wrap;html=1;fillColor=#DBDBDB;" vertex="1" parent="1">
                    <mxGeometry x="260" y="370" width="220" height="40" as="geometry"/>
                </mxCell>
                <mxCell id="7" value="&lt;font color=&quot;#000000&quot;&gt;Metadata&lt;/font&gt;" style="rounded=0;whiteSpace=wrap;html=1;fillColor=#DBDBDB;" vertex="1" parent="1">
                    <mxGeometry x="260" y="430" width="220" height="40" as="geometry"/>
                </mxCell>
                <mxCell id="8" value="&lt;font color=&quot;#000000&quot;&gt;Cube Build Engine&lt;/font&gt;" style="rounded=0;whiteSpace=wrap;html=1;fillColor=#DBDBDB;" vertex="1" parent="1">
                    <mxGeometry x="260" y="490" width="220" height="40" as="geometry"/>
                </mxCell>
                <mxCell id="9" value="&lt;font color=&quot;#000000&quot;&gt;Third Party App&lt;br&gt;(Web App, Mobile...)&lt;br&gt;.....................................&lt;br&gt;REST API&lt;br&gt;&lt;/font&gt;" style="rounded=0;whiteSpace=wrap;html=1;strokeColor=#FFB366;fillColor=#BFBFBF;" vertex="1" parent="1">
                    <mxGeometry x="200" y="80" width="150" height="110" as="geometry"/>
                </mxCell>
                <mxCell id="10" value="&lt;font color=&quot;#000000&quot;&gt;SQL-Based Tool&lt;br&gt;(BI tools;Table...)&lt;br&gt;.....................................&lt;br&gt;JDBC/ODBC&lt;br&gt;&lt;/font&gt;" style="rounded=0;whiteSpace=wrap;html=1;strokeColor=#FFB366;fillColor=#BFBFBF;" vertex="1" parent="1">
                    <mxGeometry x="390" y="80" width="150" height="110" as="geometry"/>
                </mxCell>
                <mxCell id="11" value="" style="endArrow=classic;startArrow=classic;html=1;entryX=0.5;entryY=1;entryDx=0;entryDy=0;exitX=0.068;exitY=0;exitDx=0;exitDy=0;exitPerimeter=0;strokeColor=#FFB366;" edge="1" parent="1" source="4" target="9">
                    <mxGeometry width="50" height="50" relative="1" as="geometry">
                        <mxPoint x="670" y="250" as="sourcePoint"/>
                        <mxPoint x="720" y="200" as="targetPoint"/>
                    </mxGeometry>
                </mxCell>
                <mxCell id="12" value="&lt;font color=&quot;#000000&quot;&gt;SQL&lt;/font&gt;" style="text;html=1;align=center;verticalAlign=middle;resizable=0;points=[];autosize=1;" vertex="1" parent="1">
                    <mxGeometry x="280" y="230" width="40" height="20" as="geometry"/>
                </mxCell>
                <mxCell id="13" value="" style="endArrow=classic;startArrow=classic;html=1;entryX=0.5;entryY=1;entryDx=0;entryDy=0;exitX=0.068;exitY=0;exitDx=0;exitDy=0;exitPerimeter=0;strokeColor=#FFB366;" edge="1" parent="1">
                    <mxGeometry width="50" height="50" relative="1" as="geometry">
                        <mxPoint x="450" y="260" as="sourcePoint"/>
                        <mxPoint x="450.03999999999996" y="190" as="targetPoint"/>
                    </mxGeometry>
                </mxCell>
                <mxCell id="14" value="&lt;font color=&quot;#000000&quot;&gt;SQL&lt;/font&gt;" style="text;html=1;align=center;verticalAlign=middle;resizable=0;points=[];autosize=1;" vertex="1" parent="1">
                    <mxGeometry x="455.03999999999996" y="230" width="40" height="20" as="geometry"/>
                </mxCell>
                <mxCell id="15" value="" style="shape=cube;whiteSpace=wrap;html=1;boundedLbl=1;backgroundOutline=1;darkOpacity=0.05;darkOpacity2=0.1;strokeColor=#FFB366;fillColor=#FFFFFF;" vertex="1" parent="1">
                    <mxGeometry x="660" y="350" width="120" height="80" as="geometry"/>
                </mxCell>
                <mxCell id="16" value="" style="shape=cube;whiteSpace=wrap;html=1;boundedLbl=1;backgroundOutline=1;darkOpacity=0.05;darkOpacity2=0.1;strokeColor=#FFB366;fillColor=#FFFFFF;" vertex="1" parent="1">
                    <mxGeometry x="700" y="360" width="120" height="80" as="geometry"/>
                </mxCell>
                <mxCell id="17" value="&lt;font color=&quot;#000000&quot;&gt;OLAP&lt;br&gt;Cube&lt;br&gt;&lt;/font&gt;" style="text;html=1;align=center;verticalAlign=middle;resizable=0;points=[];autosize=1;" vertex="1" parent="1">
                    <mxGeometry x="745" y="395" width="50" height="30" as="geometry"/>
                </mxCell>
                <mxCell id="18" value="HBase as Storage" style="text;html=1;align=center;verticalAlign=middle;resizable=0;points=[];autosize=1;" vertex="1" parent="1">
                    <mxGeometry x="700" y="480" width="110" height="20" as="geometry"/>
                </mxCell>
                <mxCell id="19" value="" style="endArrow=classic;startArrow=classic;html=1;entryX=0;entryY=0;entryDx=0;entryDy=30;exitX=1;exitY=0.25;exitDx=0;exitDy=0;strokeColor=#FFB366;entryPerimeter=0;" edge="1" parent="1" source="6" target="15">
                    <mxGeometry width="50" height="50" relative="1" as="geometry">
                        <mxPoint x="460" y="270" as="sourcePoint"/>
                        <mxPoint x="460.03999999999996" y="200" as="targetPoint"/>
                    </mxGeometry>
                </mxCell>
                <mxCell id="22" value="" style="endArrow=classic;html=1;exitX=0.5;exitY=1;exitDx=0;exitDy=0;exitPerimeter=0;entryX=0;entryY=0.5;entryDx=0;entryDy=0;edgeStyle=orthogonalEdgeStyle;strokeColor=#9999FF;" edge="1" parent="1" source="2" target="8">
                    <mxGeometry width="50" height="50" relative="1" as="geometry">
                        <mxPoint x="460" y="460" as="sourcePoint"/>
                        <mxPoint x="510" y="410" as="targetPoint"/>
                    </mxGeometry>
                </mxCell>
                <mxCell id="23" value="Star Schema Data" style="text;html=1;align=center;verticalAlign=middle;resizable=0;points=[];autosize=1;" vertex="1" parent="1">
                    <mxGeometry x="70" y="520" width="110" height="20" as="geometry"/>
                </mxCell>
                <mxCell id="24" value="" style="endArrow=classic;startArrow=classic;html=1;exitX=1;exitY=0.5;exitDx=0;exitDy=0;exitPerimeter=0;entryX=0;entryY=0.5;entryDx=0;entryDy=0;strokeColor=#FFB366;dashed=1;" edge="1" parent="1" source="2" target="6">
                    <mxGeometry width="50" height="50" relative="1" as="geometry">
                        <mxPoint x="460" y="460" as="sourcePoint"/>
                        <mxPoint x="510" y="410" as="targetPoint"/>
                    </mxGeometry>
                </mxCell>
                <mxCell id="25" value="Mid Latency-Minutes" style="text;html=1;align=center;verticalAlign=middle;resizable=0;points=[];autosize=1;" vertex="1" parent="1">
                    <mxGeometry x="100" y="360" width="130" height="20" as="geometry"/>
                </mxCell>
                <mxCell id="26" value="Low Latency-Minutes" style="text;html=1;align=center;verticalAlign=middle;resizable=0;points=[];autosize=1;" vertex="1" parent="1">
                    <mxGeometry x="540" y="425" width="130" height="20" as="geometry"/>
                </mxCell>
                <mxCell id="27" value="&lt;div style=&quot;text-align: left&quot;&gt;&lt;br&gt;&lt;/div&gt;" style="rounded=0;whiteSpace=wrap;html=1;strokeColor=#FFB366;fillColor=#BFBFBF;" vertex="1" parent="1">
                    <mxGeometry x="610" y="90" width="260" height="110" as="geometry"/>
                </mxCell>
                <mxCell id="28" value="&lt;font color=&quot;#ffb366&quot;&gt;- Online Analysis Data Flow&amp;nbsp;&lt;/font&gt;&lt;br&gt;&lt;font color=&quot;#000000&quot;&gt;- Offline Data Flow&lt;br&gt;- Only SQL for End User&lt;br&gt;- OLAP Cube is transparent to users&lt;/font&gt;" style="text;html=1;align=left;verticalAlign=middle;resizable=0;points=[];autosize=1;" vertex="1" parent="1">
                    <mxGeometry x="630" y="115" width="210" height="60" as="geometry"/>
                </mxCell>
                <mxCell id="30" value="" style="endArrow=classic;startArrow=classic;html=1;exitX=1;exitY=0.25;exitDx=0;exitDy=0;strokeColor=#FFB366;" edge="1" parent="1">
                    <mxGeometry width="50" height="50" relative="1" as="geometry">
                        <mxPoint x="790" y="120" as="sourcePoint"/>
                        <mxPoint x="860" y="120" as="targetPoint"/>
                    </mxGeometry>
                </mxCell>
                <mxCell id="32" value="" style="endArrow=classic;startArrow=classic;html=1;exitX=1;exitY=0.25;exitDx=0;exitDy=0;strokeColor=#9999FF;" edge="1" parent="1">
                    <mxGeometry width="50" height="50" relative="1" as="geometry">
                        <mxPoint x="770" y="134.5" as="sourcePoint"/>
                        <mxPoint x="840" y="134.5" as="targetPoint"/>
                    </mxGeometry>
                </mxCell>
            </root>
        </mxGraphModel>
    </diagram>
</mxfile>